<?xml version="1.0" encoding="UTF-8"?>
<svg width="320" height="320" viewBox="0 0 320 320" fill="none" xmlns="http://www.w3.org/2000/svg">
  <defs>
    <linearGradient id="bg-gradient" x1="52" y1="20" x2="268" y2="304" gradientUnits="userSpaceOnUse">
      <stop offset="0" stop-color="#030B18"/>
      <stop offset="0.5" stop-color="#08172B"/>
      <stop offset="1" stop-color="#030b1a"/>
    </linearGradient>
    <linearGradient id="shield-stroke" x1="108" y1="52" x2="228" y2="280" gradientUnits="userSpaceOnUse">
      <stop offset="0" stop-color="#69E0FF"/>
      <stop offset="1" stop-color="#6F7BFF"/>
    </linearGradient>
    <radialGradient id="face-fill" cx="0.5" cy="0.45" r="0.65">
      <stop offset="0" stop-color="#1F2F48"/>
      <stop offset="0.6" stop-color="#102136"/>
      <stop offset="1" stop-color="#0A1526"/>
    </radialGradient>
    <linearGradient id="wire" x1="0" y1="0" x2="1" y2="1">
      <stop offset="0" stop-color="#9EF7FF"/>
      <stop offset="1" stop-color="#5D83FF"/>
    </linearGradient>
    <filter id="glow" x="-40" y="-40" width="400" height="400" filterUnits="userSpaceOnUse" color-interpolation-filters="sRGB">
      <feGaussianBlur in="SourceGraphic" stdDeviation="3.5" result="blur"/>
      <feMerge>
        <feMergeNode in="blur"/>
        <feMergeNode in="SourceGraphic"/>
      </feMerge>
    </filter>
    <clipPath id="face-clip">
      <path d="M160 94C128 94 104 118 104 150C104 198 132 224 160 224C188 224 216 198 216 150C216 118 192 94 160 94Z"/>
    </clipPath>
    <clipPath id="muzzle-clip">
      <ellipse cx="160" cy="188" rx="46" ry="32"/>
    </clipPath>
  </defs>
  <rect width="320" height="320" rx="48" fill="url(#bg-gradient)"/>
  <path d="M160 36L64 96V174C64 236 110 298 160 316C210 298 256 236 256 174V96L160 36Z" fill="#030D1F" stroke="url(#shield-stroke)" stroke-width="4" filter="url(#glow)"/>
  <g filter="url(#glow)">
    <ellipse cx="108" cy="142" rx="34" ry="38" fill="#060E1C" stroke="url(#wire)" stroke-width="3"/>
    <ellipse cx="212" cy="142" rx="34" ry="38" fill="#060E1C" stroke="url(#wire)" stroke-width="3"/>
  </g>
  <g filter="url(#glow)">
    <path d="M160 94C128 94 104 118 104 150C104 198 132 224 160 224C188 224 216 198 216 150C216 118 192 94 160 94Z" fill="url(#face-fill)" stroke="url(#wire)" stroke-width="4"/>
    <ellipse cx="160" cy="188" rx="46" ry="32" fill="#081628" stroke="url(#wire)" stroke-width="3"/>
  </g>
  <g clip-path="url(#face-clip)" stroke="url(#wire)" stroke-width="1.4" opacity="0.75">
    <path d="M104 118H216"/>
    <path d="M104 130H216"/>
    <path d="M104 142H216"/>
    <path d="M104 154H216"/>
    <path d="M104 166H216"/>
    <path d="M104 178H216"/>
    <path d="M104 190H216"/>
    <path d="M104 202H216"/>
    <path d="M104 214H216"/>
    <path d="M124 94V224"/>
    <path d="M136 94V224"/>
    <path d="M148 94V224"/>
    <path d="M160 94V224"/>
    <path d="M172 94V224"/>
    <path d="M184 94V224"/>
    <path d="M196 94V224"/>
    <path d="M208 94V224"/>
  </g>
  <g clip-path="url(#muzzle-clip)" stroke="url(#wire)" stroke-width="1.3" opacity="0.85">
    <path d="M114 176H206"/>
    <path d="M114 184H206"/>
    <path d="M114 192H206"/>
    <path d="M114 200H206"/>
    <path d="M114 208H206"/>
    <path d="M134 156V220"/>
    <path d="M146 156V220"/>
    <path d="M158 156V220"/>
    <path d="M170 156V220"/>
    <path d="M182 156V220"/>
  </g>
  <g filter="url(#glow)">
    <ellipse cx="136" cy="158" rx="26" ry="24" fill="#060E1D" stroke="url(#wire)" stroke-width="3"/>
    <ellipse cx="184" cy="158" rx="26" ry="24" fill="#060E1D" stroke="url(#wire)" stroke-width="3"/>
    <circle cx="136" cy="158" r="12" fill="#0A1629" stroke="#8FE5FF" stroke-width="2"/>
    <circle cx="184" cy="158" r="12" fill="#0A1629" stroke="#8FE5FF" stroke-width="2"/>
    <circle cx="140" cy="150" r="4" fill="#A8F6FF" opacity="0.8"/>
    <circle cx="188" cy="150" r="4" fill="#A8F6FF" opacity="0.8"/>
  </g>
  <path d="M160 184C154 184 148 188 148 196C148 204 152 210 160 216C168 210 172 204 172 196C172 188 166 184 160 184Z" fill="#061226" stroke="url(#wire)" stroke-width="2.5" filter="url(#glow)"/>
  <path d="M148 212Q160 222 172 212" stroke="#76E7FF" stroke-width="3" stroke-linecap="round" filter="url(#glow)"/>
  <g stroke="url(#wire)" stroke-width="2.6" stroke-linecap="round" stroke-linejoin="round" opacity="0.85" filter="url(#glow)">
    <path d="M108 142C120 130 134 126 148 134"/>
    <path d="M212 142C200 130 186 126 172 134"/>
  </g>
  <text x="160" y="292" text-anchor="middle" font-family="'Segoe UI','Cascadia Code',sans-serif" font-size="26" font-weight="700" fill="#E6F7FF" stroke="#031024" stroke-width="1.2" style="paint-order:stroke fill; letter-spacing:1px;">EASY PIM</text>
</svg>
